<?xml version="1.0" encoding="UTF-8"?>
<svg width="800" height="600" viewBox="0 0 800 600" fill="none" xmlns="http://www.w3.org/2000/svg">
  <defs>
    <linearGradient id="g1" x1="0" y1="0" x2="1" y2="1">
      <stop offset="0%" stop-color="#f5e6dc"/>
      <stop offset="100%" stop-color="#f0d9cf"/>
    </linearGradient>
    <linearGradient id="g2" x1="0" y1="0" x2="1" y2="1">
      <stop offset="0%" stop-color="#f2c7b9"/>
      <stop offset="100%" stop-color="#eab9aa"/>
    </linearGradient>
    <linearGradient id="g3" x1="0" y1="0" x2="1" y2="1">
      <stop offset="0%" stop-color="#fdeee6"/>
      <stop offset="100%" stop-color="#f8e3d9"/>
    </linearGradient>
    <filter id="soft" x="-50%" y="-50%" width="200%" height="200%">
      <feGaussianBlur stdDeviation="20"/>
    </filter>
  </defs>
  <rect width="800" height="600" rx="32" fill="url(#g1)"/>
  <g opacity="0.6">
    <circle cx="650" cy="120" r="90" fill="url(#g3)"/>
    <circle cx="150" cy="420" r="120" fill="url(#g3)"/>
  </g>
  <g filter="url(#soft)" opacity="0.35">
    <ellipse cx="560" cy="420" rx="220" ry="80" fill="#e8c9bb"/>
  </g>
  <!-- Simple family-style abstract figures -->
  <g transform="translate(220,180)">
    <circle cx="120" cy="80" r="36" fill="#e3a992"/>
    <rect x="92" y="110" width="56" height="130" rx="18" fill="#f7d9cd"/>

    <circle cx="220" cy="70" r="28" fill="#d89983"/>
    <rect x="200" y="98" width="40" height="110" rx="14" fill="#f2c7b9"/>

    <circle cx="54" cy="94" r="28" fill="#d48e77"/>
    <rect x="36" y="120" width="36" height="100" rx="12" fill="#f0c1b2"/>

    <path d="M40 230 C140 180, 220 180, 320 230 L320 260 L40 260 Z" fill="#fff" opacity="0.65"/>
  </g>
</svg>

